HIERARCHY
ROOT SpineBase
{
  OFFSET 0.000000 0.000000 0.000000
  CHANNELS 6 Xposition Yposition Zposition Zrotation Xrotation Yrotation
  JOINT SpineMid
  {
    OFFSET -0.000000 27.094921 0.000000
    CHANNELS 3 Zrotation Xrotation Yrotation
    JOINT SpineShoulder
    {
      OFFSET -0.116644 20.143183 -0.567738
      CHANNELS 3 Zrotation Xrotation Yrotation
      JOINT Neck
      {
        OFFSET -0.147063 6.654062 -0.435138
        CHANNELS 3 Zrotation Xrotation Yrotation
        JOINT Head
        {
          OFFSET -1.302915 11.236854 1.843159
          CHANNELS 3 Zrotation Xrotation Yrotation
          End Site
          {
            OFFSET 0 0 0
          }
        }
      }
      JOINT ShoulderLeft
      {
        OFFSET -7.475513 -4.501446 14.044303
        CHANNELS 3 Zrotation Xrotation Yrotation
        JOINT ElbowLeft
        {
          OFFSET -0.595832 -22.360799 -11.679337
          CHANNELS 3 Zrotation Xrotation Yrotation
          JOINT WristLeft
          {
            OFFSET 0.594022 -21.277116 14.493584
            CHANNELS 3 Zrotation Xrotation Yrotation
            JOINT HandLeft
            {
              OFFSET -0.504665 -11.631690 1.924637
              CHANNELS 3 Zrotation Xrotation Yrotation
              JOINT HandTipLeft
              {
                OFFSET -0.596427 -1.133554 0.575794
                CHANNELS 3 Zrotation Xrotation Yrotation
                End Site
                {
                  OFFSET 0 0 0
                }
              }
              JOINT ThumbLeft
              {
                OFFSET 0.013273 0.593573 -2.694397
                CHANNELS 3 Zrotation Xrotation Yrotation
                End Site
                {
                  OFFSET 0 0 0
                }
              }
            }
          }
        }
      }
      JOINT ShoulderRight
      {
        OFFSET 3.474702 -3.765196 -13.655842
        CHANNELS 3 Zrotation Xrotation Yrotation
        JOINT ElbowRight
        {
          OFFSET 3.179366 -22.976413 -3.419901
          CHANNELS 3 Zrotation Xrotation Yrotation
          JOINT WristRight
          {
            OFFSET -4.746258 -21.430309 -3.363468
            CHANNELS 3 Zrotation Xrotation Yrotation
            JOINT HandRight
            {
              OFFSET -0.995922 -6.927560 1.172222
              CHANNELS 3 Zrotation Xrotation Yrotation
              JOINT HandTipRight
              {
                OFFSET -1.682896 -6.721256 -0.046834
                CHANNELS 3 Zrotation Xrotation Yrotation
                End Site
                {
                  OFFSET 0 0 0
                }
              }
              JOINT ThumbRight
              {
                OFFSET 2.290519 -1.739999 -1.463699
                CHANNELS 3 Zrotation Xrotation Yrotation
                End Site
                {
                  OFFSET 0 0 0
                }
              }
            }
          }
        }
      }
    }
  }
  JOINT HipLeft
  {
    OFFSET -2.981257 0.831275 1.960247
    CHANNELS 3 Zrotation Xrotation Yrotation
    JOINT KneeLeft
    {
      OFFSET -2.736083 -23.396014 6.978617
      CHANNELS 3 Zrotation Xrotation Yrotation
      JOINT AnkleLeft
      {
        OFFSET 21.105129 -42.571053 2.885905
        CHANNELS 3 Zrotation Xrotation Yrotation
        JOINT FootLeft
        {
          OFFSET 1.962831 -6.990702 -5.415136
          CHANNELS 3 Zrotation Xrotation Yrotation
          End Site
          {
            OFFSET 0 0 0
          }
        }
      }
    }
  }
  JOINT HipRight
  {
    OFFSET 1.855377 0.599213 -8.109194
    CHANNELS 3 Zrotation Xrotation Yrotation
    JOINT KneeRight
    {
      OFFSET 9.875612 -32.647533 1.675424
      CHANNELS 3 Zrotation Xrotation Yrotation
      JOINT AnkleRight
      {
        OFFSET 9.367340 -35.542072 7.322312
        CHANNELS 3 Zrotation Xrotation Yrotation
        JOINT FootRight
        {
          OFFSET -3.395647 -7.269525 2.030359
          CHANNELS 3 Zrotation Xrotation Yrotation
          End Site
          {
            OFFSET 0 0 0
          }
        }
      }
    }
  }
}
MOTION
Frames: 10
Frame Time: 0.033333
59.726019 74.859918 326.965094 0.000000 0.000000 64.343726 -0.000000 0.000000 -64.343726 -0.000000 0.000000 0.000000 -0.000000 0.000000 0.000000 0.000000 0.000000 0.000000 -0.000000 0.000000 0.000000 -0.000000 0.000000 0.000000 -0.000000 0.000000 0.000000 -0.000000 0.000000 0.000000 0.000000 0.000000 0.000000 0.000000 0.000000 0.000000 -0.000000 0.000000 0.000000 -0.000000 0.000000 0.000000 -0.000000 0.000000 0.000000 -0.000000 0.000000 0.000000 0.000000 0.000000 0.000000 0.000000 0.000000 0.000000 -0.000000 0.000000 -64.343726 -0.000000 0.000000 0.000000 -0.000000 0.000000 0.000000 0.000000 0.000000 0.000000 -0.000000 0.000000 -64.343726 -0.000000 0.000000 0.000000 -0.000000 0.000000 0.000000 0.000000 0.000000 0.000000
59.602874 74.861760 326.899408 -0.158474 0.188369 63.851758 -0.099252 -0.225269 -63.851693 -0.000000 0.000000 0.000000 -0.000000 0.000000 0.000000 0.000000 0.000000 0.000000 -0.000000 0.000000 0.000000 -0.000000 0.000000 0.000000 0.414643 -0.827549 0.107398 3.368809 12.747816 -5.303261 0.000000 0.000000 0.000000 0.000000 0.000000 0.000000 -0.000000 0.000000 0.000000 -0.000000 0.000000 0.000000 -0.225170 3.053294 -0.473150 3.284189 -2.391855 0.449830 0.000000 0.000000 0.000000 0.000000 0.000000 0.000000 0.787765 -1.237580 -63.492852 -1.301717 -0.342021 -0.351402 1.185690 3.292312 -0.027222 0.000000 0.000000 0.000000 -0.099252 -0.225269 -63.851693 -0.000000 0.000000 0.000000 -5.537206 8.678748 -5.178149 0.000000 0.000000 0.000000
59.537586 74.868794 326.830770 -0.232388 0.370021 63.527316 -0.227632 -0.372966 -63.527306 -0.000000 0.000000 0.000000 -0.000000 0.000000 0.000000 0.000000 0.000000 0.000000 -0.000000 0.000000 0.000000 -0.000000 0.000000 0.000000 0.672481 -1.575119 0.188481 9.631271 27.956851 -14.104857 0.000000 0.000000 0.000000 0.000000 0.000000 0.000000 -0.000000 0.000000 0.000000 -0.000000 0.000000 0.000000 -0.479799 5.344156 -0.833708 5.542352 -4.272933 1.019464 0.000000 0.000000 0.000000 0.000000 0.000000 0.000000 1.087844 -2.174409 -62.883840 -3.161344 -0.883125 -0.966572 3.524606 7.284608 0.035048 0.000000 0.000000 0.000000 -0.227632 -0.372966 -63.527306 -0.000000 0.000000 0.000000 -10.473159 17.130498 -9.385350 0.000000 0.000000 0.000000
59.530154 74.881020 326.759181 -0.221536 0.544937 63.371796 -0.387849 -0.442277 -63.372240 -0.000000 0.000000 0.000000 -0.000000 0.000000 0.000000 0.000000 0.000000 0.000000 -0.000000 0.000000 0.000000 -0.000000 0.000000 0.000000 0.778701 -2.251315 0.241128 19.713801 42.085627 -27.250134 0.000000 0.000000 0.000000 0.000000 0.000000 0.000000 -0.000000 0.000000 0.000000 -0.000000 0.000000 0.000000 -0.772296 6.726836 -1.062983 6.757156 -5.534589 1.484791 0.000000 0.000000 0.000000 0.000000 0.000000 0.000000 0.901671 -2.838059 -62.530741 -4.051016 -0.607138 -1.195434 5.517779 10.766855 -0.425363 0.000000 0.000000 0.000000 -0.387849 -0.442277 -63.372240 -0.000000 0.000000 0.000000 -14.781211 24.633445 -12.547641 0.000000 0.000000 0.000000
59.580580 74.898437 326.684641 -0.125713 0.713096 63.384663 -0.581222 -0.431853 -63.386071 -0.000000 0.000000 0.000000 0.042062 -0.830526 -0.103014 0.000000 0.000000 0.000000 -0.000000 0.000000 0.000000 -0.000000 0.000000 0.000000 0.735898 -2.863226 0.263395 31.753965 51.543617 -42.682992 0.000000 0.000000 0.000000 0.000000 0.000000 0.000000 -0.000000 0.000000 0.000000 -0.000000 0.000000 0.000000 -1.103495 7.122764 -1.153869 6.926444 -6.125630 1.708213 0.000000 0.000000 0.000000 0.000000 0.000000 0.000000 0.229702 -3.242188 -62.438192 -4.497736 0.125421 -1.248221 7.641211 13.939203 -1.197104 0.000000 0.000000 0.000000 -0.773730 0.434394 -63.364864 0.860627 -0.216256 -0.019578 -18.567522 30.850529 -14.760642 0.000000 0.000000 0.000000
59.688862 74.921047 326.607149 0.055285 0.874475 63.563523 -0.807654 -0.339804 -63.566339 -0.000000 0.000000 0.000000 0.127620 -0.935902 -0.128567 0.000000 0.000000 0.000000 -0.000000 0.000000 0.000000 -0.000000 0.000000 0.000000 0.544181 -3.416564 0.253354 40.662012 56.478867 -55.251391 0.000000 0.000000 0.000000 0.000000 0.000000 0.000000 -0.000000 0.000000 0.000000 -0.000000 0.000000 0.000000 -1.464429 6.522789 -1.111746 6.066295 -6.037097 1.657429 0.000000 0.000000 0.000000 0.000000 0.000000 0.000000 -0.928338 -3.386593 -62.602084 -4.511603 1.308328 -1.129344 9.847585 16.659623 -2.240362 0.000000 0.000000 0.000000 -1.176039 0.851549 -63.567219 1.230797 -0.200416 0.004678 -21.975968 35.767575 -16.188783 0.000000 0.000000 0.000000
59.838000 74.954424 326.522307 0.309826 1.015462 63.951861 -1.048371 -0.167532 -63.956140 -0.000000 0.000000 0.000000 0.228106 -0.918975 -0.142298 0.000000 0.000000 0.000000 -0.000000 0.000000 0.000000 -0.000000 0.000000 0.000000 -0.162573 -3.477518 0.118488 32.170688 58.523497 -54.179872 0.000000 0.000000 0.000000 0.000000 0.000000 0.000000 -0.000000 0.000000 0.000000 -0.000000 0.000000 0.000000 -2.122144 4.936941 -0.982348 4.330146 -4.534849 1.248390 0.000000 0.000000 0.000000 0.000000 0.000000 0.000000 -4.791801 -2.288082 -63.461496 -2.108008 4.660361 -0.373859 16.982260 23.871410 -6.700206 0.000000 0.000000 0.000000 -1.549319 1.425907 -63.959928 1.651608 -0.249319 0.012883 -29.186773 43.161392 -17.374321 0.000000 0.000000 0.000000
60.086617 74.988183 326.414749 0.687454 1.164157 64.547257 -1.346581 0.120470 -64.552825 -0.000000 0.000000 0.000000 0.405864 -0.868224 -0.164307 0.000000 0.000000 0.000000 -0.000000 0.000000 0.000000 -0.000000 0.000000 0.000000 -3.107586 -3.171848 -0.460078 12.407803 51.074425 -34.983778 0.000000 0.000000 0.000000 0.000000 0.000000 0.000000 -0.911523 0.508680 0.210205 -0.080801 -0.035011 -0.156075 1.182128 2.471178 -0.443527 -2.230305 -2.926880 0.289874 0.000000 0.000000 0.000000 0.000000 0.000000 0.000000 -6.463467 -2.218999 -64.022197 -2.005369 6.430844 -0.158068 23.076595 23.955213 -11.352494 0.000000 0.000000 0.000000 -2.028517 2.150803 -64.570886 2.126429 -0.255714 0.036324 -32.305967 45.792594 -17.419124 0.000000 0.000000 0.000000
60.349885 75.025066 326.344454 1.079151 1.296011 65.194985 -1.629110 0.435961 -65.200992 -0.000000 0.000000 0.000000 0.565528 -0.954808 -0.198921 0.000000 0.000000 0.000000 -0.000000 0.000000 0.000000 -0.000000 0.000000 0.000000 -2.652656 -2.871371 -0.378934 -2.269374 30.506256 -17.212159 0.000000 0.000000 0.000000 0.000000 0.000000 0.000000 -1.074984 0.997079 0.307338 -1.492725 -1.079815 0.085063 2.904136 -1.530162 -0.128222 -5.936865 0.672896 0.100366 0.000000 0.000000 0.000000 0.000000 0.000000 0.000000 -6.209252 -3.062863 -64.285821 -3.625488 7.006758 -0.195154 20.540922 22.051474 -9.308625 0.000000 0.000000 0.000000 -2.619420 3.058229 -65.253808 3.796594 -0.009540 0.344598 -32.072173 45.755385 -18.069511 0.000000 0.000000 0.000000
60.560559 75.108275 326.375284 1.364414 1.256130 65.679954 -0.865081 0.569583 -65.675758 -0.489266 -0.702148 -0.020851 0.823323 -0.880950 -0.230967 0.000000 0.000000 0.000000 -0.000000 0.000000 0.000000 -0.000000 0.000000 0.000000 -2.619722 -4.625034 -0.336003 0.872901 33.523430 -17.722282 0.000000 0.000000 0.000000 0.000000 0.000000 0.000000 -1.622450 1.565542 0.480284 -3.646147 -3.096268 0.510022 4.087287 -3.840974 -0.672352 -7.791280 0.687118 1.048621 0.000000 0.000000 0.000000 0.000000 0.000000 0.000000 -2.385385 -5.395476 -63.767685 -8.341173 5.276883 -0.835284 4.651788 18.703797 3.410877 0.000000 0.000000 0.000000 -3.009085 3.587757 -65.799819 4.224824 0.390861 0.480932 -30.859007 41.375095 -17.368640 0.000000 0.000000 0.000000
